<svg width="36.000000" height="36.000000" viewBox="0 0 36 36" fill="none" xmlns="http://www.w3.org/2000/svg" xmlns:xlink="http://www.w3.org/1999/xlink">
	<desc>
			Created with Pixso.
	</desc>
	<defs/>
	<circle id="Ellipse" cx="18.000000" cy="18.000000" r="18.000000" fill="#4E6297" fill-opacity="1.000000"/>
	<path id="Vector" d="M26.1001 12.4368C26.1001 11.0891 24.9109 9.8999 23.5632 9.8999L13.3369 9.8999C11.9893 9.8999 10.8 11.0891 10.8 12.4368L10.8 22.6631C10.8 24.0107 11.9893 25.2 13.3369 25.2L18.4897 25.2L18.4897 19.4128L16.5872 19.4128L16.5872 16.876L18.4897 16.876L18.4897 15.8455C18.4897 14.1016 19.7581 12.5952 21.3435 12.5952L23.4048 12.5952L23.4048 15.1321L21.3435 15.1321C21.1057 15.1321 20.8679 15.3699 20.8679 15.8455L20.8679 16.876L23.4048 16.876L23.4048 19.4128L20.8679 19.4128L20.8679 25.2L23.5632 25.2C24.9109 25.2 26.1001 24.0107 26.1001 22.6631L26.1001 12.4368Z" fill="#FFFFFF" fill-opacity="1.000000" fill-rule="nonzero"/>
</svg>
