<svg width="12.314697" height="20.172119" viewBox="0 0 12.3147 20.1721" fill="none" xmlns="http://www.w3.org/2000/svg" xmlns:xlink="http://www.w3.org/1999/xlink">
	<desc>
			Created with Pixso.
	</desc>
	<defs/>
	<path id="Vector" d="M6.11182 10.5244C9.01294 10.5244 11.3743 8.23071 11.3743 5.32983C11.3743 3.91284 10.8345 2.56372 9.82251 1.55176C8.81055 0.539795 7.52856 0 6.17944 0C3.27832 0 0.984619 2.36133 0.916992 5.19482C0.916992 6.61157 1.45679 7.89331 2.46875 8.90527C3.41333 9.98486 4.69507 10.5244 6.11182 10.5244ZM4.62769 3.77808C5.03247 3.37329 5.57227 3.1709 6.11182 3.1709C7.32617 3.1709 8.20337 4.11548 8.20337 5.26221C8.20337 6.47656 7.25879 7.35376 6.11182 7.35376C4.89746 7.35376 4.02051 6.40918 4.02051 5.26221C4.02051 4.72266 4.2229 4.18286 4.62769 3.77808ZM8.81055 15.4495L7.66357 14.3025C8.27075 14.2351 8.94531 14.1001 9.55249 13.8303C10.5647 13.4929 11.3066 13.0208 11.9138 12.4136C12.3862 11.9414 12.4536 11.2666 12.0488 10.592C11.7114 10.0522 11.1042 9.78247 10.4297 9.91724C10.1599 9.98486 9.88989 10.1196 9.62012 10.322C7.52856 11.739 4.69507 11.6714 2.60376 10.2546L2.19897 10.0522C1.45679 9.71484 0.7146 9.84985 0.309814 10.5247C-0.162354 11.1992 -0.0949707 11.9414 0.512207 12.5486C0.647217 12.6833 0.782227 12.751 0.849609 12.8857L0.916992 12.9534C1.86157 13.6953 3.00854 14.1677 4.49268 14.3701L3.61572 15.2471L1.32178 17.5408C1.11938 17.7432 0.849609 18.0806 0.849609 18.553C0.849609 19.1602 1.18701 19.7673 1.79419 20.0371C1.99658 20.1721 2.19897 20.1721 2.40137 20.1721C2.73877 20.1721 3.14355 20.0371 3.41333 19.6997C4.42529 18.6877 5.23486 17.8782 6.04443 17.0686L6.11182 17.0012C6.11182 17.0012 6.17944 17.0012 6.17944 17.0686C6.71899 17.6758 7.32617 18.2156 7.86597 18.8228C8.13574 19.0925 8.40576 19.3625 8.67554 19.6323C9.01294 19.9697 9.28271 20.1045 9.6875 20.1045C10.2947 20.1721 10.9695 19.7673 11.2393 19.1602C11.509 18.6204 11.3743 17.9456 10.9019 17.5408C10.2273 16.8662 9.55249 16.124 8.81055 15.4495Z" fill="#FFFFFF" fill-opacity="1.000000" fill-rule="evenodd"/>
</svg>
