<svg width="36.000000" height="36.000000" viewBox="0 0 36 36" fill="none" xmlns="http://www.w3.org/2000/svg" xmlns:xlink="http://www.w3.org/1999/xlink">
	<desc>
			Created with Pixso.
	</desc>
	<defs/>
	<circle id="Ellipse" cx="18.000000" cy="18.000000" r="18.000000" fill="#00A9E7" fill-opacity="1.000000"/>
	<path id="Vector" d="M27.2864 18.9614C27.3477 18.4705 27.4092 18.041 27.4092 17.55C27.4092 12.6411 23.4204 8.59106 18.45 8.59106C17.959 8.59106 17.5295 8.65234 17.0386 8.71362C16.241 8.28418 15.3818 8.1001 14.5227 8.1001C11.4546 8.1001 9 10.5547 9 13.6228C9 14.4819 9.18408 15.3411 9.61353 16.1387C9.55225 16.6296 9.49097 17.0591 9.49097 17.55C9.49097 22.4592 13.4795 26.5093 18.45 26.5093C18.9409 26.5093 19.3704 26.4478 19.8613 26.3865C20.6592 26.7546 21.5181 27 22.3772 27C25.4456 27 27.8999 24.5457 27.8999 21.4773C27.8999 20.6182 27.6545 19.7593 27.2864 18.9614ZM22.1931 20.8025C22.009 21.1707 21.7637 21.4773 21.3955 21.7229C21.0273 21.9683 20.6592 22.1523 20.1682 22.2751C19.6772 22.3979 19.125 22.4592 18.5115 22.4592C17.2227 22.4592 16.1794 22.1523 15.4431 21.6001C15.0137 21.2319 14.6455 20.8025 14.4614 20.25C14.2158 19.7593 14.6455 19.1455 15.259 19.1455L15.4431 19.1455C15.8113 19.1455 16.1794 19.3911 16.3022 19.6978C16.425 20.0046 16.6091 20.25 16.8545 20.4341C17.2227 20.741 17.7749 20.8638 18.45 20.8638C19.0637 20.8638 19.5544 20.741 19.9226 20.5569C20.291 20.3728 20.4751 20.0046 20.4751 19.6365C20.4751 19.4524 20.4136 19.3296 20.3523 19.207C20.291 19.0842 20.1069 18.9614 19.9841 18.9001C19.8 18.7773 19.616 18.7161 19.3091 18.6545C19.0637 18.5933 18.7568 18.4705 18.3887 18.4092L18.0205 18.2864C17.5908 18.1638 17.1001 18.041 16.7319 17.9182C16.3022 17.7957 15.9341 17.6116 15.6272 17.4275C15.3206 17.2432 15.075 16.9978 14.8909 16.6296C14.7068 16.3228 14.6455 15.8933 14.6455 15.4023C14.6455 14.9114 14.7681 14.4819 14.9524 14.1138C15.1365 13.7456 15.4431 13.4387 15.75 13.2546C16.1182 13.0093 16.4863 12.8252 16.9773 12.7637C17.4067 12.6411 17.8977 12.5796 18.45 12.5796C19.0637 12.5796 19.5544 12.6411 20.0454 12.7637C20.5364 12.8865 20.9045 13.0706 21.2727 13.3774C21.6409 13.6228 21.8865 13.9297 22.0706 14.3591C22.3772 14.9114 21.9478 15.6477 21.2727 15.6477L21.0886 15.6477C20.7205 15.6477 20.4136 15.4636 20.2295 15.157C20.1069 14.9729 19.9841 14.7888 19.8 14.6047C19.4932 14.3591 19.0022 14.2366 18.45 14.2366C17.8977 14.2366 17.4683 14.3591 17.1614 14.5432C16.8545 14.7273 16.7319 15.0342 16.7319 15.3411C16.7319 15.5251 16.7932 15.6477 16.8545 15.7705C16.916 15.8933 17.0386 16.0161 17.2227 16.0774C17.4067 16.1387 17.5908 16.2615 17.8364 16.3228C18.0818 16.3843 18.3887 16.4456 18.7568 16.5684C19.125 16.6296 19.4319 16.7524 19.8 16.8137C20.1069 16.875 20.4136 16.9978 20.7205 17.0591C21.0273 17.1819 21.2727 17.3047 21.5181 17.4275C21.7637 17.55 21.9478 17.7341 22.1318 17.9182C22.3159 18.1023 22.4387 18.3479 22.5 18.5933C22.6228 18.8386 22.6228 19.207 22.6228 19.5752C22.5 20.0046 22.3772 20.4341 22.1931 20.8025Z" fill="#FFFFFF" fill-opacity="1.000000" fill-rule="nonzero"/>
</svg>
