<svg width="18.000000" height="15.701660" viewBox="0 0 18 15.7017" fill="none" xmlns="http://www.w3.org/2000/svg" xmlns:xlink="http://www.w3.org/1999/xlink">
	<desc>
			Created with Pixso.
	</desc>
	<defs/>
	<path id="Vector" d="M0.315674 7.53662L4.45386 9.07983L6.06714 14.27C6.13721 14.6208 6.55811 14.6909 6.83862 14.4805L9.15332 12.5867C9.36377 12.3765 9.71436 12.3765 9.99487 12.5867L14.1333 15.6028C14.4138 15.8132 14.8347 15.6729 14.9048 15.3223L17.991 0.592773C18.061 0.242188 17.7104 -0.108643 17.3596 0.0317383L0.315674 6.62476C-0.105225 6.76514 -0.105225 7.39648 0.315674 7.53662ZM5.85669 8.30811L13.9929 3.32837C14.1333 3.25806 14.2734 3.46851 14.1333 3.53857L7.46997 9.78125C7.25952 9.9917 7.04907 10.2722 7.04907 10.6228L6.83862 12.3062C6.83862 12.5166 6.48804 12.5867 6.41772 12.3062L5.57617 9.21997C5.36572 8.86938 5.5061 8.44849 5.85669 8.30811Z" fill="#FFFFFF" fill-opacity="1.000000" fill-rule="nonzero"/>
</svg>
