<svg width="17.639893" height="14.040039" viewBox="0 0 17.6399 14.04" fill="none" xmlns="http://www.w3.org/2000/svg" xmlns:xlink="http://www.w3.org/1999/xlink">
	<desc>
			Created with Pixso.
	</desc>
	<defs/>
	<path id="Vector" d="M17.6399 1.70996C17.01 1.97998 16.29 2.15991 15.5701 2.25C16.29 1.80005 16.9199 1.08008 17.1899 0.27002C16.47 0.719971 15.75 0.98999 14.8501 1.16992C14.22 0.449951 13.23 0 12.24 0C10.26 0 8.63989 1.62012 8.63989 3.6001C8.63989 3.87012 8.63989 4.13989 8.72998 4.40991C5.76001 4.22998 3.06006 2.79004 1.26001 0.629883C0.98999 1.16992 0.810059 1.80005 0.810059 2.42993C0.810059 3.68994 1.43994 4.77002 2.42993 5.3999C1.80005 5.3999 1.26001 5.21997 0.810059 4.94995C0.810059 6.65991 2.07007 8.18994 3.68994 8.45996C3.41992 8.55005 3.06006 8.55005 2.69995 8.55005C2.42993 8.55005 2.25 8.55005 1.97998 8.45996C2.42993 9.8999 3.78003 10.98 5.3999 10.98C4.13989 11.97 2.61011 12.51 0.899902 12.51C0.629883 12.51 0.360107 12.51 0 12.4199C1.62012 13.4099 3.51001 14.04 5.58008 14.04C12.24 14.04 15.8401 8.55005 15.8401 3.78003L15.8401 3.33008C16.5601 3.06006 17.1899 2.42993 17.6399 1.70996Z" fill="#FFFFFF" fill-opacity="1.000000" fill-rule="nonzero"/>
</svg>
