<svg width="18.899902" height="20.699951" viewBox="0 0 18.8999 20.7" fill="none" xmlns="http://www.w3.org/2000/svg" xmlns:xlink="http://www.w3.org/1999/xlink">
	<desc>
			Created with Pixso.
	</desc>
	<defs/>
	<path id="Vector" d="M14.6284 0.491211C11.1982 -0.163818 7.63574 -0.163818 4.20557 0.491211C2.68823 0.818848 0.775146 2.65308 0.445312 4.09424C-0.148438 6.91138 -0.148438 9.7937 0.445312 12.6106C0.841064 14.0518 2.75415 15.886 4.20557 16.2136C4.27148 16.2136 4.3374 16.2791 4.3374 16.3447L4.3374 20.4717C4.3374 20.6682 4.60132 20.7993 4.73315 20.6028L6.7124 18.572C6.7124 18.572 8.29565 16.9343 8.55933 16.6721C8.55933 16.6721 8.62549 16.6067 8.69141 16.6067C10.6704 16.6721 12.7153 16.4756 14.6946 16.1482C16.2117 15.8206 18.1248 13.9863 18.4548 12.5452C19.0483 9.72827 19.0483 6.8457 18.4548 4.02881C18.0588 2.65308 16.1458 0.818848 14.6284 0.491211ZM14.6946 12.8071C14.3647 13.4622 13.9688 13.9863 13.3091 14.314C13.1113 14.3794 12.9133 14.4448 12.7153 14.5105C12.4517 14.4448 12.2537 14.3794 12.0557 14.314C9.94482 13.4622 7.96582 12.283 6.38257 10.5798C5.5249 9.59717 4.79932 8.4834 4.20557 7.30444C3.94165 6.71484 3.67773 6.19067 3.47974 5.60107C3.28198 5.0769 3.61182 4.55298 3.94165 4.15991C4.27148 3.76685 4.66724 3.50488 5.12915 3.30835C5.45898 3.11182 5.78882 3.24268 6.05273 3.50488C6.58032 4.15991 7.10815 4.81494 7.50391 5.53564C7.76782 5.99414 7.7019 6.51831 7.23999 6.8457C7.10815 6.91138 7.04224 6.97681 6.91016 7.10791C6.84424 7.17334 6.7124 7.23877 6.64624 7.36987C6.5144 7.56641 6.5144 7.76294 6.58032 7.95947C7.10815 9.46606 8.09766 10.6453 9.61499 11.3003C9.87891 11.4314 10.0767 11.4968 10.4065 11.4968C10.8684 11.4314 11.0662 10.9075 11.396 10.6453C11.7258 10.3833 12.1218 10.3833 12.5176 10.5798C12.8474 10.7764 13.1772 11.0383 13.573 11.3003C13.9028 11.5625 14.2327 11.759 14.5625 12.021C14.7605 12.1521 14.8264 12.4795 14.6946 12.8071ZM11.9238 7.8938C11.6599 7.8938 11.594 7.76294 11.5281 7.56641C11.5281 7.4353 11.5281 7.23877 11.4622 7.10791C11.396 6.8457 11.2642 6.58374 11.0002 6.38721C10.8684 6.32178 10.7363 6.2561 10.6045 6.19067C10.4065 6.12524 10.2747 6.12524 10.0767 6.12524C9.87891 6.05957 9.81274 5.92871 9.81274 5.73218C9.81274 5.60107 10.0107 5.46997 10.1426 5.46997C11.1982 5.53564 11.9897 6.12524 12.1218 7.36987C12.1218 7.4353 12.1218 7.56641 12.1218 7.63184C12.1218 7.76294 12.0557 7.8938 11.9238 7.8938ZM11.2642 5.01147C10.9343 4.88037 10.6045 4.74951 10.2087 4.68384C10.0767 4.68384 9.87891 4.61841 9.74683 4.61841C9.54907 4.61841 9.41699 4.4873 9.48291 4.29077C9.48291 4.09424 9.61499 3.96338 9.81274 4.02881C10.4724 4.09424 11.0662 4.22534 11.6599 4.4873C12.8474 5.0769 13.5071 6.05957 13.7051 7.36987C13.7051 7.4353 13.7051 7.50073 13.7051 7.56641C13.7051 7.69727 13.7051 7.82837 13.7051 8.0249C13.7051 8.09033 13.7051 8.15601 13.7051 8.22144C13.6389 8.4834 13.1772 8.54907 13.1113 8.22144C13.1113 8.15601 13.0454 8.0249 13.0454 7.95947C13.0454 7.36987 12.9133 6.78027 12.6494 6.2561C12.2537 5.6665 11.792 5.27344 11.2642 5.01147ZM14.8264 8.94214C14.6284 8.94214 14.4966 8.74561 14.4966 8.54907C14.4966 8.15601 14.4307 7.76294 14.3647 7.36987C14.1008 5.27344 12.3855 3.57031 10.3406 3.24268C10.0107 3.17725 9.68091 3.17725 9.41699 3.11182C9.21899 3.11182 8.95532 3.11182 8.88916 2.84961C8.82324 2.65308 9.02124 2.45654 9.21899 2.45654C9.28516 2.45654 9.35107 2.45654 9.35107 2.45654C12.1218 2.52222 14.4307 4.35645 14.8923 7.10791C14.9585 7.56641 15.0244 8.0249 15.0244 8.54907C15.1562 8.74561 15.0244 8.94214 14.8264 8.94214Z" fill="#FFFFFF" fill-opacity="1.000000" fill-rule="nonzero"/>
</svg>
