<svg width="18.779785" height="10.909180" viewBox="0 0 18.7798 10.9092" fill="none" xmlns="http://www.w3.org/2000/svg" xmlns:xlink="http://www.w3.org/1999/xlink">
	<desc>
			Created with Pixso.
	</desc>
	<defs/>
	<path id="Vector" d="M18.6055 9.78833C18.6055 9.71362 18.5308 9.71362 18.5308 9.63892C18.2319 9.04126 17.5593 8.29395 16.6626 7.47217C16.2144 7.09839 15.9902 6.79956 15.8408 6.65015C15.6167 6.35132 15.6167 6.1272 15.6914 5.82812C15.7661 5.604 16.0649 5.23047 16.5879 4.55786C16.887 4.18433 17.0364 3.96021 17.2605 3.73608C18.3813 2.2417 18.9043 1.27026 18.7549 0.822021L18.6802 0.747314C18.6055 0.672607 18.5308 0.597656 18.3813 0.597656C18.2319 0.522949 18.0076 0.522949 17.7834 0.597656L14.9441 0.597656C14.8694 0.597656 14.8694 0.597656 14.72 0.597656C14.6453 0.597656 14.5706 0.597656 14.5706 0.597656L14.4958 0.597656L14.4211 0.597656L14.3464 0.672363C14.2717 0.747314 14.2717 0.747314 14.2717 0.822021C13.9727 1.6438 13.5991 2.31641 13.2256 3.06348C13.0015 3.43726 12.7773 3.81079 12.553 4.10962C12.3289 4.40845 12.1794 4.63257 12.03 4.78223C11.8806 4.93164 11.7312 5.00635 11.6565 5.15576C11.5818 5.23047 11.4324 5.30518 11.4324 5.23047C11.3574 5.23047 11.2827 5.23047 11.2827 5.15576C11.208 5.08105 11.1333 5.00635 11.0586 4.93164C10.9839 4.85693 10.9839 4.70728 10.9092 4.55786C10.9092 4.40845 10.9092 4.25903 10.9092 4.18433C10.9092 4.10962 10.9092 3.8855 10.9092 3.73608C10.9092 3.51196 10.9092 3.3623 10.9092 3.2876C10.9092 3.06348 10.9092 2.76465 10.9092 2.46582C10.9092 2.16699 10.9092 1.94263 10.9092 1.79321C10.9092 1.6438 10.9092 1.41968 10.9092 1.27026C10.9092 1.04614 10.9092 0.896729 10.9092 0.822021C10.9092 0.747314 10.8345 0.597656 10.8345 0.522949C10.7598 0.448242 10.6851 0.373535 10.6104 0.298828C10.5356 0.224121 10.3862 0.224121 10.3115 0.149414C9.93774 0.074707 9.4895 0 8.96655 0C7.771 0 6.94897 0.074707 6.65015 0.224121C6.50073 0.298828 6.35132 0.373535 6.27661 0.522949C6.1272 0.672363 6.1272 0.747314 6.2019 0.747314C6.57544 0.822021 6.87427 0.971436 7.02368 1.19556L7.09839 1.34497C7.1731 1.41968 7.1731 1.56909 7.2478 1.79321C7.32251 2.01733 7.32251 2.2417 7.32251 2.54053C7.32251 2.98877 7.32251 3.43726 7.32251 3.73608C7.32251 4.10962 7.2478 4.33374 7.2478 4.55786C7.2478 4.78223 7.1731 4.93164 7.09839 5.00635C7.02368 5.15576 7.02368 5.23047 6.94897 5.23047C6.94897 5.23047 6.94897 5.30518 6.87427 5.30518C6.79956 5.30518 6.72485 5.37988 6.57544 5.37988C6.50073 5.37988 6.35132 5.30518 6.27661 5.23047C6.1272 5.15576 5.97754 5.00635 5.90283 4.85693C5.75342 4.70752 5.604 4.48315 5.45459 4.18433C5.30518 3.8855 5.08105 3.58667 4.93164 3.13818L4.78223 2.83936C4.70752 2.68994 4.55786 2.39111 4.40845 2.01733C4.25903 1.6438 4.10962 1.34497 3.96021 0.971436C3.8855 0.822021 3.81079 0.747314 3.73608 0.672363L3.66138 0.672363C3.66138 0.672363 3.58667 0.597656 3.51196 0.597656C3.43726 0.597656 3.36255 0.522949 3.2876 0.522949L0.597656 0.522949C0.298828 0.522949 0.149414 0.597656 0.074707 0.672363L0 0.747314C0 0.747314 0 0.822021 0 0.896729C0 0.971436 0 1.04614 0.074707 1.19556C0.448242 2.09229 0.896729 2.98877 1.34497 3.8855C1.79321 4.70728 2.2417 5.45459 2.54053 5.97754C2.91406 6.50073 3.21289 7.02368 3.58667 7.47217C3.96021 7.92041 4.18433 8.21924 4.25903 8.36865C4.40845 8.51807 4.48315 8.59277 4.55786 8.66748L4.78223 8.89185C4.93164 9.04126 5.15576 9.26538 5.45459 9.4895C5.75342 9.71362 6.1272 9.93774 6.50073 10.1621C6.87427 10.3862 7.32251 10.5356 7.771 10.6851C8.29395 10.8345 8.74243 10.9092 9.19067 10.8345L10.3115 10.8345C10.5356 10.8345 10.6851 10.7598 10.8345 10.6104L10.9092 10.5356C10.9092 10.4609 10.9839 10.4609 10.9839 10.3862C10.9839 10.3115 10.9839 10.2368 10.9839 10.0874C10.9839 9.78833 10.9839 9.56421 11.0586 9.34009C11.1333 9.11597 11.1333 8.96655 11.208 8.81714C11.2827 8.66748 11.3574 8.59277 11.4324 8.51807C11.5071 8.44336 11.5818 8.36865 11.5818 8.36865L11.6565 8.36865C11.8059 8.29395 12.03 8.36865 12.1794 8.51807C12.4036 8.66748 12.6277 8.89185 12.7771 9.11597C12.9268 9.34009 13.1509 9.56421 13.4497 9.86304C13.7485 10.1621 13.9727 10.3862 14.1223 10.4609L14.3464 10.6104C14.4958 10.6851 14.6453 10.7598 14.8694 10.8345C15.0935 10.9092 15.2429 10.9092 15.3923 10.9092L17.9329 10.8345C18.1572 10.8345 18.3813 10.7598 18.5308 10.6851C18.6802 10.6104 18.7549 10.5356 18.7549 10.3862C18.7549 10.3115 18.7549 10.1621 18.7549 10.0874C18.6055 9.93774 18.6055 9.86304 18.6055 9.78833Z" fill="#FFFFFF" fill-opacity="1.000000" fill-rule="nonzero"/>
</svg>
