<svg width="18.899902" height="18.899902" viewBox="0 0 18.8999 18.8999" fill="none" xmlns="http://www.w3.org/2000/svg" xmlns:xlink="http://www.w3.org/1999/xlink">
	<desc>
			Created with Pixso.
	</desc>
	<defs/>
	<path id="Vector" d="M16.134 2.75635C14.3562 0.984375 11.9854 0 9.48291 0C4.28052 0 0.065918 4.19995 0.065918 9.38428C0.065918 11.0249 0.526855 12.6655 1.31714 14.0437L0 18.8999L5.00488 17.5874C6.3877 18.3093 7.90234 18.7031 9.48291 18.7031C14.6853 18.7031 18.8999 14.5032 18.8999 9.31885C18.8342 6.89062 17.9121 4.52808 16.134 2.75635ZM14.0269 12.7312C13.8293 13.2563 12.9072 13.7812 12.4463 13.8469C12.0513 13.9126 11.5244 13.9126 10.9976 13.7812C10.6682 13.6499 10.2073 13.5188 9.68042 13.2563C7.30981 12.272 5.79517 9.90942 5.66333 9.7124C5.53174 9.5813 4.67554 8.46558 4.67554 7.28442C4.67554 6.10303 5.26831 5.57812 5.46582 5.31567C5.66333 5.05322 5.92676 5.05322 6.12451 5.05322C6.2561 5.05322 6.45361 5.05322 6.58545 5.05322C6.71704 5.05322 6.91455 4.98755 7.1123 5.44678C7.30981 5.90625 7.77075 7.0874 7.83667 7.15308C7.90234 7.28442 7.90234 7.41553 7.83667 7.54688C7.77075 7.67822 7.70483 7.80933 7.57324 7.94067C7.44141 8.07178 7.30981 8.2688 7.2439 8.33447C7.1123 8.46558 6.98047 8.59692 7.1123 8.7937C7.2439 9.05615 7.70483 9.77808 8.4292 10.4343C9.35132 11.2219 10.0757 11.4844 10.3391 11.6157C10.6025 11.7468 10.7341 11.6812 10.866 11.55C10.9976 11.4187 11.4585 10.8938 11.5903 10.6313C11.7219 10.3687 11.9194 10.4343 12.1172 10.5C12.3147 10.5657 13.5 11.1562 13.6975 11.2876C13.9609 11.4187 14.0928 11.4844 14.1584 11.55C14.2244 11.7468 14.2244 12.2063 14.0269 12.7312Z" fill="#FFFFFF" fill-opacity="1.000000" fill-rule="nonzero"/>
</svg>
