<svg width="131.935547" height="22.238037" viewBox="0 0 131.936 22.238" fill="none" xmlns="http://www.w3.org/2000/svg" xmlns:xlink="http://www.w3.org/1999/xlink">
	<desc>
			Created with Pixso.
	</desc>
	<defs/>
	<path id="Vector" d="M11.4917 22.238C14.877 22.238 17.7969 21.0579 19.7847 18.8215L17.7656 16.865C16.0884 18.6353 14.0386 19.4739 11.647 19.4739C6.73975 19.4739 3.10596 15.9331 3.10596 11.1191C3.10596 6.30493 6.73975 2.76416 11.647 2.76416C14.0386 2.76416 16.0884 3.57178 17.7656 5.34204L19.7847 3.3855C17.7969 1.14917 14.877 0 11.5229 0C4.90723 0 0 4.68994 0 11.1191C0 17.5483 4.90723 22.238 11.4917 22.238ZM35.626 5.52856L35.626 14.0386C35.626 17.5793 33.6382 19.5049 30.5327 19.5049C27.7061 19.5049 26.0913 17.8899 26.0913 14.6597L26.0913 5.52856L23.1094 5.52856L23.1094 15.0015C23.1094 19.8467 25.936 22.176 30.1909 22.176C32.5205 22.176 34.5703 21.2131 35.7812 19.5049L35.7812 21.9897L38.6079 21.9897L38.6079 5.52856L35.626 5.52856ZM47.1416 8.29272L47.1416 5.52856L44.2842 5.52856L44.2842 21.9897L47.2656 21.9897L47.2656 13.79C47.2656 10.1873 49.2534 8.23047 52.4526 8.23047C52.6699 8.23047 52.8872 8.23047 53.1357 8.26172L53.1357 5.37329C50.2476 5.37329 48.1973 6.36694 47.1416 8.29272ZM61.6528 22.176C66.0322 22.176 68.7656 20.2815 68.7656 17.2998C68.7656 10.9016 58.3296 14.0696 58.3296 10.1873C58.3296 8.88281 59.603 7.91992 62.2119 7.91992C63.8271 7.91992 65.4731 8.26172 66.9639 9.22437L68.2373 6.86401C66.8086 5.93213 64.3862 5.37329 62.2432 5.37329C58.019 5.37329 55.3789 7.36084 55.3789 10.3115C55.3789 16.865 65.7837 13.6658 65.7837 17.3618C65.7837 18.7595 64.6348 19.5981 61.8706 19.5981C59.7275 19.5981 57.4912 18.8838 56.0933 17.8899L54.8511 20.2502C56.2178 21.3374 58.9199 22.176 61.6528 22.176ZM78.4858 5.37329C75.8462 5.37329 73.3926 6.11865 71.6841 7.48511L72.9268 9.72144C74.2002 8.63428 76.1875 7.95117 78.1445 7.95117C81.0952 7.95117 82.5547 9.41089 82.5547 11.9265L82.5547 12.5166L77.834 12.5166C72.9268 12.5166 71.2183 14.6909 71.2183 17.3308C71.2183 20.1882 73.5786 22.176 77.3057 22.176C79.8838 22.176 81.7163 21.3064 82.71 19.8154L82.71 21.9897L85.5366 21.9897L85.5366 12.0508C85.5366 7.54736 82.9897 5.37329 78.4858 5.37329ZM77.8027 19.8777C75.5356 19.8777 74.1689 18.8528 74.1689 17.2065C74.1689 15.8088 75.0073 14.6597 77.958 14.6597L82.5547 14.6597L82.5547 16.958C81.8096 18.8528 80.0391 19.8777 77.8027 19.8777ZM99.3779 18.8838C98.7568 19.3806 97.9185 19.6602 97.0488 19.6602C95.4023 19.6602 94.4707 18.6663 94.4707 16.896L94.4707 7.98218L99.1919 7.98218L99.1919 5.52856L94.4707 5.52856L94.4707 1.92554L91.4893 1.92554L91.4893 5.52856L88.6938 5.52856L88.6938 7.98218L91.4893 7.98218L91.4893 17.0203C91.4893 20.3435 93.3838 22.176 96.707 22.176C98.0425 22.176 99.4092 21.8032 100.31 21.0269L99.3779 18.8838ZM110.419 22.176C115.357 22.176 118.96 18.6663 118.96 13.759C118.96 8.85181 115.357 5.37329 110.419 5.37329C105.48 5.37329 101.847 8.85181 101.847 13.759C101.847 18.6663 105.48 22.176 110.419 22.176ZM110.419 19.5671C107.251 19.5671 104.859 17.2688 104.859 13.759C104.859 10.2495 107.251 7.98218 110.419 7.98218C113.587 7.98218 115.947 10.2495 115.947 13.759C115.947 17.2688 113.587 19.5671 110.419 19.5671ZM125.941 8.29272L125.941 5.52856L123.083 5.52856L123.083 21.9897L126.065 21.9897L126.065 13.79C126.065 10.1873 128.053 8.23047 131.252 8.23047C131.47 8.23047 131.687 8.23047 131.936 8.26172L131.936 5.37329C129.047 5.37329 126.997 6.36694 125.941 8.29272Z" fill="#000000" fill-opacity="1.000000" fill-rule="nonzero"/>
</svg>
